<svg xmlns="http://www.w3.org/2000/svg" xmlns:oryx="http://oryx-editor.org" id="_21CF9C17-B363-47ED-94DA-2587D39E1BC2" width="423.234375" height="376" xmlns:xlink="http://www.w3.org/1999/xlink" xmlns:svg="http://www.w3.org/2000/svg"><defs><marker id="_62BE401E-C9AA-42D7-B708-6731947E881Estart" refX="1" refY="5" markerUnits="userSpaceOnUse" markerWidth="17" markerHeight="11" orient="auto" fill="#000000" stroke="#000000"> 	  		<path id="_62BE401E-C9AA-42D7-B708-6731947E881Econditional" d="M 0 5 L 8 0 L 16 5 L 8 10 L 0 5" fill="white" stroke="#000000" stroke-width="1" display="none"/> 			<path id="_62BE401E-C9AA-42D7-B708-6731947E881Edefault" d="M 5 0 L 11 10" fill="white" stroke="#000000" stroke-width="1" display="none"/> 	  	</marker><marker id="_62BE401E-C9AA-42D7-B708-6731947E881Eend" refX="15" refY="6" markerUnits="userSpaceOnUse" markerWidth="15" markerHeight="12" orient="auto" fill="#000000" stroke="#000000"> 	  		<path id="_62BE401E-C9AA-42D7-B708-6731947E881Eframe2" d="M 0 1 L 15 6 L 0 11z" fill="#000000" stroke="#000000" stroke-linejoin="round" stroke-width="2"/> 	  	</marker><marker id="_072DD597-286D-4DA0-A59F-79FB2775AD3Astart" refX="1" refY="5" markerUnits="userSpaceOnUse" markerWidth="17" markerHeight="11" orient="auto" fill="#000000" stroke="#000000"> 	  		<path id="_072DD597-286D-4DA0-A59F-79FB2775AD3Aconditional" d="M 0 5 L 8 0 L 16 5 L 8 10 L 0 5" fill="white" stroke="#000000" stroke-width="1" display="none"/> 			<path id="_072DD597-286D-4DA0-A59F-79FB2775AD3Adefault" d="M 5 0 L 11 10" fill="white" stroke="#000000" stroke-width="1" display="none"/> 	  	</marker><marker id="_072DD597-286D-4DA0-A59F-79FB2775AD3Aend" refX="15" refY="6" markerUnits="userSpaceOnUse" markerWidth="15" markerHeight="12" orient="auto" fill="#000000" stroke="#000000"> 	  		<path id="_072DD597-286D-4DA0-A59F-79FB2775AD3Aframe2" d="M 0 1 L 15 6 L 0 11z" fill="#000000" stroke="#000000" stroke-linejoin="round" stroke-width="2"/> 	  	</marker><marker id="_1A953FF9-5EB8-4791-A5CA-CB9C5119A3A9start" refX="1" refY="5" markerUnits="userSpaceOnUse" markerWidth="17" markerHeight="11" orient="auto" fill="#000000" stroke="#000000"> 	  		<path id="_1A953FF9-5EB8-4791-A5CA-CB9C5119A3A9conditional" d="M 0 5 L 8 0 L 16 5 L 8 10 L 0 5" fill="white" stroke="#000000" stroke-width="1" display="none"/> 			<path id="_1A953FF9-5EB8-4791-A5CA-CB9C5119A3A9default" d="M 5 0 L 11 10" fill="white" stroke="#000000" stroke-width="1" display="none"/> 	  	</marker><marker id="_1A953FF9-5EB8-4791-A5CA-CB9C5119A3A9end" refX="15" refY="6" markerUnits="userSpaceOnUse" markerWidth="15" markerHeight="12" orient="auto" fill="#000000" stroke="#000000"> 	  		<path id="_1A953FF9-5EB8-4791-A5CA-CB9C5119A3A9frame2" d="M 0 1 L 15 6 L 0 11z" fill="#000000" stroke="#000000" stroke-linejoin="round" stroke-width="2"/> 	  	</marker></defs><g stroke="none" font-family="Verdana, sans-serif" font-size-adjust="none" font-style="normal" font-variant="normal" font-weight="normal" line-heigth="normal" font-size="12"><g class="stencils" transform="translate(16, 16)"><g class="me"/><g class="children"><g id="_59DDBF21-0FB1-434B-97CD-4172159D9ECE" bpmn2nodeid="processStartEvent"><g class="stencils" transform="translate(120, 145)"><g class="me"><g pointer-events="fill" id="_59DDBF21-0FB1-434B-97CD-4172159D9ECE">        <defs id="_59DDBF21-0FB1-434B-97CD-4172159D9ECE__59DDBF21-0FB1-434B-97CD-4172159D9ECE_5"> 		<radialGradient id="_59DDBF21-0FB1-434B-97CD-4172159D9ECEbackground" cx="10%" cy="10%" r="100%" fx="10%" fy="10%"> 			<stop offset="0%" stop-color="#ffffff" stop-opacity="1" id="_59DDBF21-0FB1-434B-97CD-4172159D9ECE__59DDBF21-0FB1-434B-97CD-4172159D9ECE_6"/> 			<stop id="_59DDBF21-0FB1-434B-97CD-4172159D9ECEfill_el" offset="100%" stop-color="#9acd32" stop-opacity="1"/> 		</radialGradient> 	</defs> 	     <circle id="_59DDBF21-0FB1-434B-97CD-4172159D9ECEbg_frame" cx="15" cy="15" r="15" stroke="#000000" fill="url(#_59DDBF21-0FB1-434B-97CD-4172159D9ECEbackground) white" stroke-width="1" style="stroke-dasharray: 5.5, 3"/>      <circle id="_59DDBF21-0FB1-434B-97CD-4172159D9ECEframe" cx="15" cy="15" r="15" stroke="#000000" fill="none" stroke-width="1" display="inherit"/>  	<text font-size="11" id="_59DDBF21-0FB1-434B-97CD-4172159D9ECEtext_name" x="15" y="32" oryx:align="top center" stroke="black" stroke-width="0pt" letter-spacing="-0.01px" fill="#000000" text-anchor="middle" transform="rotate(0 15 32)" visibility="inherit" oryx:fontSize="11"/>   </g></g><g class="children" style="overflow:hidden"/><g class="edge"/></g><g class="controls"><g class="dockers"/><g class="magnets" transform="translate(120, 145)"><g pointer-events="all" display="none" transform="translate(7, 7)"><circle cx="8" cy="8" r="4" stroke="none" fill="red" fill-opacity="0.3"/></g></g></g></g><g id="_888C69D5-E055-4562-910C-F3681D79F74C" bpmn2nodeid="_6BCC808E-692F-4440-BB15-EE7B0DC52C3A"><g class="stencils" transform="translate(195, 140)"><g class="me"><g id="_888C69D5-E055-4562-910C-F3681D79F74C">        <defs id="_888C69D5-E055-4562-910C-F3681D79F74C__888C69D5-E055-4562-910C-F3681D79F74C_4"> 		<radialGradient id="_888C69D5-E055-4562-910C-F3681D79F74Cbackground" cx="10%" cy="10%" r="100%" fx="10%" fy="10%"> 			<stop offset="0%" stop-color="#ffffff" stop-opacity="1" id="_888C69D5-E055-4562-910C-F3681D79F74C__888C69D5-E055-4562-910C-F3681D79F74C_5"/> 			<stop id="_888C69D5-E055-4562-910C-F3681D79F74Cfill_el" offset="100%" stop-color="#f0e68c" stop-opacity="1"/> 		</radialGradient> 		<radialGradient id="_888C69D5-E055-4562-910C-F3681D79F74Cborderbackground" cx="10%" cy="10%" r="100%" fx="10%" fy="10%"> 			<stop offset="0%" stop-color="#ffffff" stop-opacity="1" id="_888C69D5-E055-4562-910C-F3681D79F74C__888C69D5-E055-4562-910C-F3681D79F74C_6"/> 			<stop id="_888C69D5-E055-4562-910C-F3681D79F74Cfill_border" offset="100%" stop-color="#a67f00" stop-opacity="1" stroke="#a67f00"/> 		</radialGradient> 	</defs> 	     <path d=" M0 20.5  L20.5 0  L40 20.5  L20.5 40  z" id="_888C69D5-E055-4562-910C-F3681D79F74Cbg_frame" fill="url(#_888C69D5-E055-4562-910C-F3681D79F74Cbackground) white" style="stroke-width:1" stroke="#a67f00"/>     <g id="_888C69D5-E055-4562-910C-F3681D79F74Cframe" stroke="#a67f00">       <path id="_888C69D5-E055-4562-910C-F3681D79F74Cframe2" d=" M13.25 12.05  L17.25 12.05  L27.65 28.95  L23.75 28.95  z" style="stroke-width:1" stroke="#a67f00" fill="url(#_888C69D5-E055-4562-910C-F3681D79F74Cborderbackground)"/>       <path id="_888C69D5-E055-4562-910C-F3681D79F74Cframe3" d=" M13.25 28.95  L23.75 12.05  L27.65 12.05  L17.25 28.95  z" style="stroke-width:1" stroke="#a67f00" fill="url(#_888C69D5-E055-4562-910C-F3681D79F74Cborderbackground)"/>     </g> 	 	<text id="_888C69D5-E055-4562-910C-F3681D79F74Ctext_name" x="30.5" y="30.5" oryx:align="left top" stroke-width="0pt" letter-spacing="-0.01px" fill="#000000" font-size="10" text-anchor="start" transform="rotate(0 30.5 30.5)" visibility="inherit" oryx:fontSize="10"><tspan x="30.5" y="30.5" dy="10" id="ext-gen842">Doc Ok?</tspan></text> 	   </g></g><g class="children" style="overflow:hidden"/><g class="edge"/></g><g class="controls"><g class="dockers"/><g class="magnets" transform="translate(195, 140)"><g pointer-events="all" display="none" transform="translate(12.5, 12.5)"><circle cx="8" cy="8" r="4" stroke="none" fill="red" fill-opacity="0.3"/></g></g></g></g><g id="_0086DFB9-D8CA-4829-8AFE-E832E5D0A0F6" bpmn2nodeid="_56236968-A39A-4A14-9AF4-9A8D34494DEA"><g class="stencils" transform="translate(280, 120)"><g class="me"><g pointer-events="fill" oryx:minimumSize="50 40" id="_0086DFB9-D8CA-4829-8AFE-E832E5D0A0F6">   	<defs id="_0086DFB9-D8CA-4829-8AFE-E832E5D0A0F6__0086DFB9-D8CA-4829-8AFE-E832E5D0A0F6_17"> 		<radialGradient id="_0086DFB9-D8CA-4829-8AFE-E832E5D0A0F6background" cx="10%" cy="10%" r="100%" fx="10%" fy="10%"> 			<stop offset="0%" stop-color="#ffffff" stop-opacity="1" id="_0086DFB9-D8CA-4829-8AFE-E832E5D0A0F6__0086DFB9-D8CA-4829-8AFE-E832E5D0A0F6_18"/> 			<stop id="_0086DFB9-D8CA-4829-8AFE-E832E5D0A0F6fill_el" offset="100%" stop-color="#fafad2" stop-opacity="1"/> 		</radialGradient> 		<radialGradient id="_0086DFB9-D8CA-4829-8AFE-E832E5D0A0F6borderbackground" cx="10%" cy="10%" r="100%" fx="10%" fy="10%"> 			<stop offset="0%" stop-color="#ffffff" stop-opacity="1" id="_0086DFB9-D8CA-4829-8AFE-E832E5D0A0F6__0086DFB9-D8CA-4829-8AFE-E832E5D0A0F6_19"/> 			<stop id="_0086DFB9-D8CA-4829-8AFE-E832E5D0A0F6fill_border" offset="100%" stop-color="#000000" stop-opacity="1" stroke="#000000"/> 		</radialGradient> 	</defs> 	 	<rect id="_0086DFB9-D8CA-4829-8AFE-E832E5D0A0F6text_frame" oryx:anchors="bottom top right left" x="1" y="1" width="94" height="79" rx="10" ry="10" stroke="none" stroke-width="0" fill="none"/> 	<rect id="_0086DFB9-D8CA-4829-8AFE-E832E5D0A0F6bg_frame" oryx:resize="vertical horizontal" x="0" y="0" width="100" height="80" rx="10" ry="10" stroke="#000000" stroke-width="1" fill="url(#_0086DFB9-D8CA-4829-8AFE-E832E5D0A0F6background) #ffffcc"/> 		<text font-size="12" id="_0086DFB9-D8CA-4829-8AFE-E832E5D0A0F6text_name" x="50" y="40" oryx:align="middle center" oryx:fittoelem="text_frame" stroke="black" text-anchor="middle" stroke-width="0pt" letter-spacing="-0.01px" fill="#000000" transform="rotate(0 50 40)" visibility="inherit" oryx:fontSize="12"/>     <g id="_0086DFB9-D8CA-4829-8AFE-E832E5D0A0F6manualTask" transform="scale(0.7,0.7) translate(8,8)" display="none">     	<path oryx:anchors="top left" id="_0086DFB9-D8CA-4829-8AFE-E832E5D0A0F6frame" style="opacity:1;fill:none;fill-opacity:1;stroke-width:1" d="M0.5,3.751l4.083-3.25c0,0,11.166,0.083,12.083,0.083s-2.417,2.917-1.5,2.917     s11.667,0,12.584,0c1.166,1.708-0.168,3.167-0.834,3.667s0.875,1.917-1,4.417c-0.75,0.25,0.75,1.875-1.333,3.333     c-1.167,0.583,0.583,1.542-1.25,2.833c-1.167,0-20.833,0.083-20.833,0.083l-2-1.333V3.751z" stroke="#000000"/> 		<path id="_0086DFB9-D8CA-4829-8AFE-E832E5D0A0F6frame2" oryx:anchors="top left" style="opacity:1;fill:none;stroke-width:2" d="M 13.5 7 L 27 7" stroke="#000000"/> 		<path id="_0086DFB9-D8CA-4829-8AFE-E832E5D0A0F6frame3" oryx:anchors="top left" style="opacity:1;fill:none;stroke-width:2" d="M 13.5 11 L 26 11" stroke="#000000"/> 		<path id="_0086DFB9-D8CA-4829-8AFE-E832E5D0A0F6frame4" oryx:anchors="top left" style="opacity:1;fill:none;stroke-width:1.5" d="M 14 14.5 L 25 14.5" stroke="#000000"/> 		<path id="_0086DFB9-D8CA-4829-8AFE-E832E5D0A0F6frame5" oryx:anchors="top left" style="opacity:1;fill:none;stroke-width:1.5" d="M 8.2 3.1 L 15 3.1" stroke="#000000"/> 	</g> 	 	<g id="_0086DFB9-D8CA-4829-8AFE-E832E5D0A0F6businessRuleTask" transform="scale(0.7,0.7) translate(8,8)" display="none"> 		<rect id="_0086DFB9-D8CA-4829-8AFE-E832E5D0A0F6frame6" oryx:anchors="top left" x="0" y="0" width="22" height="4" style="opacity:1;fill:#B3B1B3;fill-opacity:1;" stroke="#000000"/> 		<rect id="_0086DFB9-D8CA-4829-8AFE-E832E5D0A0F6frame7" oryx:anchors="top left" x="0" y="4" style="opacity:1;fill:none;" width="22" height="12" stroke="#000000"/> 		<path id="_0086DFB9-D8CA-4829-8AFE-E832E5D0A0F6frame8" oryx:anchors="top left" style="opacity:1;fill:none;" d="M 0 10 L 22 10" stroke="#000000"/> 		<path id="_0086DFB9-D8CA-4829-8AFE-E832E5D0A0F6frame9" oryx:anchors="top left" style="opacity:1; fill:none;" d="M 7 4 L 7 16" stroke="#000000"/> 	</g> 	 	<g id="_0086DFB9-D8CA-4829-8AFE-E832E5D0A0F6scriptTask" transform="scale(0.7,0.7) translate(8,8)" display="none"> 		<path oryx:anchors="top left" id="_0086DFB9-D8CA-4829-8AFE-E832E5D0A0F6frame10" style="opacity:1;fill:none;" stroke="#000000" d="M6.402,0.5h14.5c0,0-5.833,2.833-5.833,5.583s4.417,6,4.417,9.167    s-4.167,5.083-4.167,5.083H0.235c0,0,5-2.667,5-5s-4.583-6.75-4.583-9.25S6.402,0.5,6.402,0.5z"/> 		<path oryx:anchors="top left" id="_0086DFB9-D8CA-4829-8AFE-E832E5D0A0F6frame11" style="opacity:1;fill:none;stroke-width:1.5" d="M 3.5 4.5 L 13.5 4.5" stroke="#000000"/> 		<path oryx:anchors="top left" id="_0086DFB9-D8CA-4829-8AFE-E832E5D0A0F6frame12" style="opacity:1;fill:none;stroke-width:1.5" d="M 3.8 8.5 L 13.8 8.5" stroke="#000000"/> 		<path oryx:anchors="top left" id="_0086DFB9-D8CA-4829-8AFE-E832E5D0A0F6frame13" style="opacity:1;fill:none;stroke-width:1.5" d="M 6.3 12.5 L 16.3 12.5" stroke="#000000"/> 		<path oryx:anchors="top left" id="_0086DFB9-D8CA-4829-8AFE-E832E5D0A0F6frame14" style="opacity:1;fill:none;stroke-width:1.5" d="M 6.5 16.5 L 16.5 16.5" stroke="#000000"/> 	</g> 	 	<g id="_0086DFB9-D8CA-4829-8AFE-E832E5D0A0F6userTask" transform="scale(0.7,0.7) translate(8,8)" display="none"> 		<path id="_0086DFB9-D8CA-4829-8AFE-E832E5D0A0F6frame15" oryx:anchors="top left" style="opacity:1;fill:#F4F6F7" stroke="#000000" d="M0.585,24.167h24.083v-7.833c0,0-2.333-3.917-7.083-5.167h-9.25    c-4.417,1.333-7.833,5.75-7.833,5.75L0.585,24.167z"/> 		<path id="_0086DFB9-D8CA-4829-8AFE-E832E5D0A0F6frame16" oryx:anchors="top left" style="opacity:1;fill:none" d="M 6 20 L 6 24" stroke="#000000"/> 		<path id="_0086DFB9-D8CA-4829-8AFE-E832E5D0A0F6frame17" oryx:anchors="top left" style="opacity:1;fill:none" d="M 20 20 L 20 24" stroke="#000000"/> 		<circle id="_0086DFB9-D8CA-4829-8AFE-E832E5D0A0F6frame18" oryx:anchors="top left" fill="black" cx="13.002" cy="5.916" r="5.417" stroke="#000000"/> 		<path id="_0086DFB9-D8CA-4829-8AFE-E832E5D0A0F6frame19" oryx:anchors="top left" style="opacity:1;fill:#F0EFF0;" stroke="#000000" d="M8.043,7.083c0,0,2.814-2.426,5.376-1.807s4.624-0.693,4.624-0.693    c0.25,1.688,0.042,3.75-1.458,5.584c0,0,1.083,0.75,1.083,1.5s0.125,1.875-1,3s-5.5,1.25-6.75,0S8.668,12.834,8.668,12    s0.583-1.25,1.25-1.917C8.835,9.5,7.419,7.708,8.043,7.083z"/> 	</g> 	 	<g id="_0086DFB9-D8CA-4829-8AFE-E832E5D0A0F6serviceTask" transform="scale(0.7,0.7) translate(8,8)" display="none"> 		<polygon oryx:anchors="top left" id="_0086DFB9-D8CA-4829-8AFE-E832E5D0A0F6frame20" style="opacity:1;fill:#ffffff" stroke="#000000" points="15.392,5.064 17.954,2.502 20.347,4.895 17.786,7.455     18.729,9.732 22.353,9.732 22.353,13.115 18.731,13.115 17.788,15.392 20.351,17.955 17.958,20.347 15.397,17.786 13.12,18.729     13.12,22.353 9.737,22.353 9.737,18.731 7.46,17.788 4.897,20.35 2.506,17.958 5.066,15.397 4.124,13.12 0.5,13.12 0.5,9.737     4.121,9.737 5.065,7.461 2.503,4.898 4.895,2.506 7.455,5.066 9.732,4.125 9.732,0.5 13.116,0.5 13.116,4.121 "/> 		<circle oryx:anchors="top left" id="_0086DFB9-D8CA-4829-8AFE-E832E5D0A0F6frame21" style="opacity:1;fill:none" stroke="#000000" cx="11.427" cy="11.426" r="3.714"/> 		<polygon oryx:anchors="top left" id="_0086DFB9-D8CA-4829-8AFE-E832E5D0A0F6frame22" style="opacity:1;fill:#ffffff" stroke="#000000" points="21.392,11.064 23.954,8.502 26.347,10.895 23.786,13.455     24.729,15.732 28.353,15.732 28.353,19.115 24.731,19.115 23.788,21.392 26.351,23.955 23.958,26.347 21.397,23.786 19.12,24.729     19.12,28.353 15.737,28.353 15.737,24.731 13.46,23.788 10.897,26.35 8.506,23.958 11.066,21.397 10.124,19.12 6.5,19.12     6.5,15.737 10.121,15.737 11.065,13.461 8.503,10.898 10.895,8.506 13.455,11.066 15.732,10.125 15.732,6.5 19.116,6.5     19.116,10.121 "/> 		<circle oryx:anchors="top left" id="_0086DFB9-D8CA-4829-8AFE-E832E5D0A0F6frame23" style="opacity:1;fill:none;" stroke="#000000" cx="17.427" cy="17.426" r="3.714"/> 	</g> 	 	<g id="_0086DFB9-D8CA-4829-8AFE-E832E5D0A0F6sendTask" display="none"> 		<path id="_0086DFB9-D8CA-4829-8AFE-E832E5D0A0F6stframe24" oryx:anchors="left top" stroke="#FFFFFF" fill="black" stroke-width="1" d="M8,11 L8,21 L24,21 L24,11 L16,17z"/> 		<path id="_0086DFB9-D8CA-4829-8AFE-E832E5D0A0F6stframe25" oryx:anchors="left top" stroke="#FFFFFF" fill="black" stroke-width="1" d="M7,10 L16,17 L25 10z"/> 	</g> 	 	<g id="_0086DFB9-D8CA-4829-8AFE-E832E5D0A0F6receiveTask" display="none"> 		<path id="_0086DFB9-D8CA-4829-8AFE-E832E5D0A0F6frame26" oryx:anchors="left top" stroke="#000000" fill="none" stroke-width="1" d="M8,11 L8,21 L24,21 L24,11z M8,11 L16,17 L24,11"/> 	</g> 	 	<g id="_0086DFB9-D8CA-4829-8AFE-E832E5D0A0F6none" display="inherit"/>  	<g id="_0086DFB9-D8CA-4829-8AFE-E832E5D0A0F6sequential" display="none">         <path oryx:anchors="bottom" fill="none" stroke="#000000" stroke-width="2" d="M46,76h10M46,72h10 M46,68h10" id="_0086DFB9-D8CA-4829-8AFE-E832E5D0A0F6__0086DFB9-D8CA-4829-8AFE-E832E5D0A0F6_20"/>     </g>   </g></g><g class="children" style="overflow:hidden"/><g class="edge"/></g><g class="controls"><g class="dockers"/><g class="magnets" transform="translate(280, 120)"><g pointer-events="all" display="none" transform="translate(-7, 12)"><circle cx="8" cy="8" r="4" stroke="none" fill="red" fill-opacity="0.3"/></g><g pointer-events="all" display="none" transform="translate(-7, 32)"><circle cx="8" cy="8" r="4" stroke="none" fill="red" fill-opacity="0.3"/></g><g pointer-events="all" display="none" transform="translate(-7, 52)"><circle cx="8" cy="8" r="4" stroke="none" fill="red" fill-opacity="0.3"/></g><g pointer-events="all" display="none" transform="translate(17, 71)"><circle cx="8" cy="8" r="4" stroke="none" fill="red" fill-opacity="0.3"/></g><g pointer-events="all" display="none" transform="translate(42, 71)"><circle cx="8" cy="8" r="4" stroke="none" fill="red" fill-opacity="0.3"/></g><g pointer-events="all" display="none" transform="translate(67, 71)"><circle cx="8" cy="8" r="4" stroke="none" fill="red" fill-opacity="0.3"/></g><g pointer-events="all" display="none" transform="translate(91, 12)"><circle cx="8" cy="8" r="4" stroke="none" fill="red" fill-opacity="0.3"/></g><g pointer-events="all" display="none" transform="translate(91, 32)"><circle cx="8" cy="8" r="4" stroke="none" fill="red" fill-opacity="0.3"/></g><g pointer-events="all" display="none" transform="translate(91, 52)"><circle cx="8" cy="8" r="4" stroke="none" fill="red" fill-opacity="0.3"/></g><g pointer-events="all" display="none" transform="translate(17, -7)"><circle cx="8" cy="8" r="4" stroke="none" fill="red" fill-opacity="0.3"/></g><g pointer-events="all" display="none" transform="translate(42, -7)"><circle cx="8" cy="8" r="4" stroke="none" fill="red" fill-opacity="0.3"/></g><g pointer-events="all" display="none" transform="translate(67, -7)"><circle cx="8" cy="8" r="4" stroke="none" fill="red" fill-opacity="0.3"/></g><g pointer-events="all" display="none" transform="translate(42, 32)"><circle cx="8" cy="8" r="4" stroke="none" fill="red" fill-opacity="0.3"/></g></g></g></g><g id="_0EA2C5D8-33A5-464E-BC68-F71B3D12B080" bpmn2nodeid="_ADED3FC8-48A4-4D1E-9EBC-31F7BEDF38ED"><g class="stencils" transform="translate(165, 255)"><g class="me"><g pointer-events="fill" oryx:minimumSize="50 40" id="_0EA2C5D8-33A5-464E-BC68-F71B3D12B080">   	<defs id="_0EA2C5D8-33A5-464E-BC68-F71B3D12B080__0EA2C5D8-33A5-464E-BC68-F71B3D12B080_17"> 		<radialGradient id="_0EA2C5D8-33A5-464E-BC68-F71B3D12B080background" cx="10%" cy="10%" r="100%" fx="10%" fy="10%"> 			<stop offset="0%" stop-color="#ffffff" stop-opacity="1" id="_0EA2C5D8-33A5-464E-BC68-F71B3D12B080__0EA2C5D8-33A5-464E-BC68-F71B3D12B080_18"/> 			<stop id="_0EA2C5D8-33A5-464E-BC68-F71B3D12B080fill_el" offset="100%" stop-color="#fafad2" stop-opacity="1"/> 		</radialGradient> 		<radialGradient id="_0EA2C5D8-33A5-464E-BC68-F71B3D12B080borderbackground" cx="10%" cy="10%" r="100%" fx="10%" fy="10%"> 			<stop offset="0%" stop-color="#ffffff" stop-opacity="1" id="_0EA2C5D8-33A5-464E-BC68-F71B3D12B080__0EA2C5D8-33A5-464E-BC68-F71B3D12B080_19"/> 			<stop id="_0EA2C5D8-33A5-464E-BC68-F71B3D12B080fill_border" offset="100%" stop-color="#000000" stop-opacity="1" stroke="#000000"/> 		</radialGradient> 	</defs> 	 	<rect id="_0EA2C5D8-33A5-464E-BC68-F71B3D12B080text_frame" oryx:anchors="bottom top right left" x="1" y="1" width="94" height="79" rx="10" ry="10" stroke="none" stroke-width="0" fill="none"/> 	<rect id="_0EA2C5D8-33A5-464E-BC68-F71B3D12B080bg_frame" oryx:resize="vertical horizontal" x="0" y="0" width="100" height="80" rx="10" ry="10" stroke="#000000" stroke-width="1" fill="url(#_0EA2C5D8-33A5-464E-BC68-F71B3D12B080background) #ffffcc"/> 		<text font-size="12" id="_0EA2C5D8-33A5-464E-BC68-F71B3D12B080text_name" x="50" y="40" oryx:align="middle center" oryx:fittoelem="text_frame" stroke="black" text-anchor="middle" stroke-width="0pt" letter-spacing="-0.01px" fill="#000000" transform="rotate(0 50 40)" visibility="inherit" oryx:fontSize="12"/>     <g id="_0EA2C5D8-33A5-464E-BC68-F71B3D12B080manualTask" transform="scale(0.7,0.7) translate(8,8)" display="none">     	<path oryx:anchors="top left" id="_0EA2C5D8-33A5-464E-BC68-F71B3D12B080frame" style="opacity:1;fill:none;fill-opacity:1;stroke-width:1" d="M0.5,3.751l4.083-3.25c0,0,11.166,0.083,12.083,0.083s-2.417,2.917-1.5,2.917     s11.667,0,12.584,0c1.166,1.708-0.168,3.167-0.834,3.667s0.875,1.917-1,4.417c-0.75,0.25,0.75,1.875-1.333,3.333     c-1.167,0.583,0.583,1.542-1.25,2.833c-1.167,0-20.833,0.083-20.833,0.083l-2-1.333V3.751z" stroke="#000000"/> 		<path id="_0EA2C5D8-33A5-464E-BC68-F71B3D12B080frame2" oryx:anchors="top left" style="opacity:1;fill:none;stroke-width:2" d="M 13.5 7 L 27 7" stroke="#000000"/> 		<path id="_0EA2C5D8-33A5-464E-BC68-F71B3D12B080frame3" oryx:anchors="top left" style="opacity:1;fill:none;stroke-width:2" d="M 13.5 11 L 26 11" stroke="#000000"/> 		<path id="_0EA2C5D8-33A5-464E-BC68-F71B3D12B080frame4" oryx:anchors="top left" style="opacity:1;fill:none;stroke-width:1.5" d="M 14 14.5 L 25 14.5" stroke="#000000"/> 		<path id="_0EA2C5D8-33A5-464E-BC68-F71B3D12B080frame5" oryx:anchors="top left" style="opacity:1;fill:none;stroke-width:1.5" d="M 8.2 3.1 L 15 3.1" stroke="#000000"/> 	</g> 	 	<g id="_0EA2C5D8-33A5-464E-BC68-F71B3D12B080businessRuleTask" transform="scale(0.7,0.7) translate(8,8)" display="none"> 		<rect id="_0EA2C5D8-33A5-464E-BC68-F71B3D12B080frame6" oryx:anchors="top left" x="0" y="0" width="22" height="4" style="opacity:1;fill:#B3B1B3;fill-opacity:1;" stroke="#000000"/> 		<rect id="_0EA2C5D8-33A5-464E-BC68-F71B3D12B080frame7" oryx:anchors="top left" x="0" y="4" style="opacity:1;fill:none;" width="22" height="12" stroke="#000000"/> 		<path id="_0EA2C5D8-33A5-464E-BC68-F71B3D12B080frame8" oryx:anchors="top left" style="opacity:1;fill:none;" d="M 0 10 L 22 10" stroke="#000000"/> 		<path id="_0EA2C5D8-33A5-464E-BC68-F71B3D12B080frame9" oryx:anchors="top left" style="opacity:1; fill:none;" d="M 7 4 L 7 16" stroke="#000000"/> 	</g> 	 	<g id="_0EA2C5D8-33A5-464E-BC68-F71B3D12B080scriptTask" transform="scale(0.7,0.7) translate(8,8)" display="none"> 		<path oryx:anchors="top left" id="_0EA2C5D8-33A5-464E-BC68-F71B3D12B080frame10" style="opacity:1;fill:none;" stroke="#000000" d="M6.402,0.5h14.5c0,0-5.833,2.833-5.833,5.583s4.417,6,4.417,9.167    s-4.167,5.083-4.167,5.083H0.235c0,0,5-2.667,5-5s-4.583-6.75-4.583-9.25S6.402,0.5,6.402,0.5z"/> 		<path oryx:anchors="top left" id="_0EA2C5D8-33A5-464E-BC68-F71B3D12B080frame11" style="opacity:1;fill:none;stroke-width:1.5" d="M 3.5 4.5 L 13.5 4.5" stroke="#000000"/> 		<path oryx:anchors="top left" id="_0EA2C5D8-33A5-464E-BC68-F71B3D12B080frame12" style="opacity:1;fill:none;stroke-width:1.5" d="M 3.8 8.5 L 13.8 8.5" stroke="#000000"/> 		<path oryx:anchors="top left" id="_0EA2C5D8-33A5-464E-BC68-F71B3D12B080frame13" style="opacity:1;fill:none;stroke-width:1.5" d="M 6.3 12.5 L 16.3 12.5" stroke="#000000"/> 		<path oryx:anchors="top left" id="_0EA2C5D8-33A5-464E-BC68-F71B3D12B080frame14" style="opacity:1;fill:none;stroke-width:1.5" d="M 6.5 16.5 L 16.5 16.5" stroke="#000000"/> 	</g> 	 	<g id="_0EA2C5D8-33A5-464E-BC68-F71B3D12B080userTask" transform="scale(0.7,0.7) translate(8,8)" display="none"> 		<path id="_0EA2C5D8-33A5-464E-BC68-F71B3D12B080frame15" oryx:anchors="top left" style="opacity:1;fill:#F4F6F7" stroke="#000000" d="M0.585,24.167h24.083v-7.833c0,0-2.333-3.917-7.083-5.167h-9.25    c-4.417,1.333-7.833,5.75-7.833,5.75L0.585,24.167z"/> 		<path id="_0EA2C5D8-33A5-464E-BC68-F71B3D12B080frame16" oryx:anchors="top left" style="opacity:1;fill:none" d="M 6 20 L 6 24" stroke="#000000"/> 		<path id="_0EA2C5D8-33A5-464E-BC68-F71B3D12B080frame17" oryx:anchors="top left" style="opacity:1;fill:none" d="M 20 20 L 20 24" stroke="#000000"/> 		<circle id="_0EA2C5D8-33A5-464E-BC68-F71B3D12B080frame18" oryx:anchors="top left" fill="black" cx="13.002" cy="5.916" r="5.417" stroke="#000000"/> 		<path id="_0EA2C5D8-33A5-464E-BC68-F71B3D12B080frame19" oryx:anchors="top left" style="opacity:1;fill:#F0EFF0;" stroke="#000000" d="M8.043,7.083c0,0,2.814-2.426,5.376-1.807s4.624-0.693,4.624-0.693    c0.25,1.688,0.042,3.75-1.458,5.584c0,0,1.083,0.75,1.083,1.5s0.125,1.875-1,3s-5.5,1.25-6.75,0S8.668,12.834,8.668,12    s0.583-1.25,1.25-1.917C8.835,9.5,7.419,7.708,8.043,7.083z"/> 	</g> 	 	<g id="_0EA2C5D8-33A5-464E-BC68-F71B3D12B080serviceTask" transform="scale(0.7,0.7) translate(8,8)" display="none"> 		<polygon oryx:anchors="top left" id="_0EA2C5D8-33A5-464E-BC68-F71B3D12B080frame20" style="opacity:1;fill:#ffffff" stroke="#000000" points="15.392,5.064 17.954,2.502 20.347,4.895 17.786,7.455     18.729,9.732 22.353,9.732 22.353,13.115 18.731,13.115 17.788,15.392 20.351,17.955 17.958,20.347 15.397,17.786 13.12,18.729     13.12,22.353 9.737,22.353 9.737,18.731 7.46,17.788 4.897,20.35 2.506,17.958 5.066,15.397 4.124,13.12 0.5,13.12 0.5,9.737     4.121,9.737 5.065,7.461 2.503,4.898 4.895,2.506 7.455,5.066 9.732,4.125 9.732,0.5 13.116,0.5 13.116,4.121 "/> 		<circle oryx:anchors="top left" id="_0EA2C5D8-33A5-464E-BC68-F71B3D12B080frame21" style="opacity:1;fill:none" stroke="#000000" cx="11.427" cy="11.426" r="3.714"/> 		<polygon oryx:anchors="top left" id="_0EA2C5D8-33A5-464E-BC68-F71B3D12B080frame22" style="opacity:1;fill:#ffffff" stroke="#000000" points="21.392,11.064 23.954,8.502 26.347,10.895 23.786,13.455     24.729,15.732 28.353,15.732 28.353,19.115 24.731,19.115 23.788,21.392 26.351,23.955 23.958,26.347 21.397,23.786 19.12,24.729     19.12,28.353 15.737,28.353 15.737,24.731 13.46,23.788 10.897,26.35 8.506,23.958 11.066,21.397 10.124,19.12 6.5,19.12     6.5,15.737 10.121,15.737 11.065,13.461 8.503,10.898 10.895,8.506 13.455,11.066 15.732,10.125 15.732,6.5 19.116,6.5     19.116,10.121 "/> 		<circle oryx:anchors="top left" id="_0EA2C5D8-33A5-464E-BC68-F71B3D12B080frame23" style="opacity:1;fill:none;" stroke="#000000" cx="17.427" cy="17.426" r="3.714"/> 	</g> 	 	<g id="_0EA2C5D8-33A5-464E-BC68-F71B3D12B080sendTask" display="none"> 		<path id="_0EA2C5D8-33A5-464E-BC68-F71B3D12B080stframe24" oryx:anchors="left top" stroke="#FFFFFF" fill="black" stroke-width="1" d="M8,11 L8,21 L24,21 L24,11 L16,17z"/> 		<path id="_0EA2C5D8-33A5-464E-BC68-F71B3D12B080stframe25" oryx:anchors="left top" stroke="#FFFFFF" fill="black" stroke-width="1" d="M7,10 L16,17 L25 10z"/> 	</g> 	 	<g id="_0EA2C5D8-33A5-464E-BC68-F71B3D12B080receiveTask" display="none"> 		<path id="_0EA2C5D8-33A5-464E-BC68-F71B3D12B080frame26" oryx:anchors="left top" stroke="#000000" fill="none" stroke-width="1" d="M8,11 L8,21 L24,21 L24,11z M8,11 L16,17 L24,11"/> 	</g> 	 	<g id="_0EA2C5D8-33A5-464E-BC68-F71B3D12B080none" display="inherit"/>  	<g id="_0EA2C5D8-33A5-464E-BC68-F71B3D12B080sequential" display="none">         <path oryx:anchors="bottom" fill="none" stroke="#000000" stroke-width="2" d="M46,76h10M46,72h10 M46,68h10" id="_0EA2C5D8-33A5-464E-BC68-F71B3D12B080__0EA2C5D8-33A5-464E-BC68-F71B3D12B080_20"/>     </g>   </g></g><g class="children" style="overflow:hidden"/><g class="edge"/></g><g class="controls"><g class="dockers"/><g class="magnets" transform="translate(165, 255)"><g pointer-events="all" display="none" transform="translate(-7, 12)"><circle cx="8" cy="8" r="4" stroke="none" fill="red" fill-opacity="0.3"/></g><g pointer-events="all" display="none" transform="translate(-7, 32)"><circle cx="8" cy="8" r="4" stroke="none" fill="red" fill-opacity="0.3"/></g><g pointer-events="all" display="none" transform="translate(-7, 52)"><circle cx="8" cy="8" r="4" stroke="none" fill="red" fill-opacity="0.3"/></g><g pointer-events="all" display="none" transform="translate(17, 71)"><circle cx="8" cy="8" r="4" stroke="none" fill="red" fill-opacity="0.3"/></g><g pointer-events="all" display="none" transform="translate(42, 71)"><circle cx="8" cy="8" r="4" stroke="none" fill="red" fill-opacity="0.3"/></g><g pointer-events="all" display="none" transform="translate(67, 71)"><circle cx="8" cy="8" r="4" stroke="none" fill="red" fill-opacity="0.3"/></g><g pointer-events="all" display="none" transform="translate(91, 12)"><circle cx="8" cy="8" r="4" stroke="none" fill="red" fill-opacity="0.3"/></g><g pointer-events="all" display="none" transform="translate(91, 32)"><circle cx="8" cy="8" r="4" stroke="none" fill="red" fill-opacity="0.3"/></g><g pointer-events="all" display="none" transform="translate(91, 52)"><circle cx="8" cy="8" r="4" stroke="none" fill="red" fill-opacity="0.3"/></g><g pointer-events="all" display="none" transform="translate(17, -7)"><circle cx="8" cy="8" r="4" stroke="none" fill="red" fill-opacity="0.3"/></g><g pointer-events="all" display="none" transform="translate(42, -7)"><circle cx="8" cy="8" r="4" stroke="none" fill="red" fill-opacity="0.3"/></g><g pointer-events="all" display="none" transform="translate(67, -7)"><circle cx="8" cy="8" r="4" stroke="none" fill="red" fill-opacity="0.3"/></g><g pointer-events="all" display="none" transform="translate(42, 32)"><circle cx="8" cy="8" r="4" stroke="none" fill="red" fill-opacity="0.3"/></g></g></g></g></g><g class="edge"><g id="_62BE401E-C9AA-42D7-B708-6731947E881E" bpmn2nodeid="_E7C0D039-FB9D-4D44-B8F9-B73CA2594FB2"><g class="stencils"><g class="me"><g pointer-events="painted" bpmn2nodeid="_0CA7C443-A5E3-4AD2-AFBC-471922EBFDAA"><path id="_62BE401E-C9AA-42D7-B708-6731947E881E_1" d="M150.375 160L195.25 160 " stroke="#000000" fill="none" stroke-width="2" stroke-linecap="round" stroke-linejoin="round" marker-start="url(#_62BE401E-C9AA-42D7-B708-6731947E881Estart)" marker-end="url(#_62BE401E-C9AA-42D7-B708-6731947E881Eend)"/></g><text id="_62BE401E-C9AA-42D7-B708-6731947E881Etext_name" font-size="12" x="164.375" y="146" oryx:edgePosition="startTop" stroke-width="0pt" letter-spacing="-0.01px" fill="#000000" text-anchor="start" transform="rotate(360 150.375 160)" visibility="inherit" oryx:fontSize="12"/></g><g class="children" style="overflow:hidden"/><g class="edge"/></g><g class="controls"><g class="dockers"/><g class="magnets"/></g></g><g id="_072DD597-286D-4DA0-A59F-79FB2775AD3A" bpmn2nodeid="_226B08E1-B15F-4060-B4DD-D0D05A5A3A40"><g class="stencils"><g class="me"><g pointer-events="painted" bpmn2nodeid="_B1A78EB7-225B-40FC-AA00-0E61C5A38180"><path id="_072DD597-286D-4DA0-A59F-79FB2775AD3A_1" d="M234.8671875 160L279.5859375 160 " stroke="#000000" fill="none" stroke-width="2" stroke-linecap="round" stroke-linejoin="round" marker-start="url(#_072DD597-286D-4DA0-A59F-79FB2775AD3Astart)" marker-end="url(#_072DD597-286D-4DA0-A59F-79FB2775AD3Aend)"/></g><text id="_072DD597-286D-4DA0-A59F-79FB2775AD3Atext_name" font-size="12" x="248.8671875" y="146" oryx:edgePosition="startTop" stroke-width="0pt" letter-spacing="-0.01px" fill="#000000" text-anchor="start" transform="rotate(360 234.8671875 160)" visibility="inherit" oryx:fontSize="12"/></g><g class="children" style="overflow:hidden"/><g class="edge"/></g><g class="controls"><g class="dockers"/><g class="magnets"/></g></g><g id="_1A953FF9-5EB8-4791-A5CA-CB9C5119A3A9" bpmn2nodeid="_AEEEB85B-25C7-4382-A7B5-1D783885F085"><g class="stencils"><g class="me"><g pointer-events="painted" bpmn2nodeid="_6BC7A4B4-137F-448C-990A-9B66A16694B5"><path id="_1A953FF9-5EB8-4791-A5CA-CB9C5119A3A9_1" d="M215 179.984375L215 254.9765625 " stroke="#000000" fill="none" stroke-width="2" stroke-linecap="round" stroke-linejoin="round" marker-start="url(#_1A953FF9-5EB8-4791-A5CA-CB9C5119A3A9start)" marker-end="url(#_1A953FF9-5EB8-4791-A5CA-CB9C5119A3A9end)"/></g><text id="_1A953FF9-5EB8-4791-A5CA-CB9C5119A3A9text_name" font-size="12" x="201" y="165.984375" oryx:edgePosition="startTop" stroke-width="0pt" letter-spacing="-0.01px" fill="#000000" text-anchor="end" transform="rotate(-90 215 179.984375)" visibility="inherit" oryx:fontSize="12"/></g><g class="children" style="overflow:hidden"/><g class="edge"/></g><g class="controls"><g class="dockers"/><g class="magnets"/></g></g></g><text id="_6E761B73-EB02-4B08-AE36-A6C4B0FFCD05" style="stroke-width:1;fill:rgb(177,194,214);font-family:arial;font-weight:bold" font-size="12" onclick="ORYX.Plugins.CanvasTitle.openTextualAnalysis()" onmouseover="ORYX.Plugins.CanvasTitle.addToolTip('_6E761B73-EB02-4B08-AE36-A6C4B0FFCD05')" transform="translate(10, 20)">Regulacao_SADT v.1.0 (com.benner.regulacao.Regulacao_SADT)</text></g></g></svg>